<?xml version="1.0" standalone="no"?>
<svg xmlns:xlink="http://www.w3.org/1999/xlink" id="wave" style="transform:rotate(180deg); transition: 0.3s" viewBox="0 0 1440 290" version="1.1" xmlns="http://www.w3.org/2000/svg"><defs><linearGradient id="sw-gradient-0" x1="0" x2="0" y1="1" y2="0"><stop stop-color="rgba(238, 169, 73, 1)" offset="0%"/><stop stop-color="rgba(238, 169, 73, 1)" offset="100%"/></linearGradient></defs><path style="transform:translate(0, 0px); opacity:1" fill="url(#sw-gradient-0)" d="M0,261L26.7,227.2C53.3,193,107,126,160,82.2C213.3,39,267,19,320,43.5C373.3,68,427,135,480,174C533.3,213,587,222,640,217.5C693.3,213,747,193,800,174C853.3,155,907,135,960,149.8C1013.3,164,1067,213,1120,217.5C1173.3,222,1227,184,1280,183.7C1333.3,184,1387,222,1440,241.7C1493.3,261,1547,261,1600,241.7C1653.3,222,1707,184,1760,183.7C1813.3,184,1867,222,1920,222.3C1973.3,222,2027,184,2080,140.2C2133.3,97,2187,48,2240,24.2C2293.3,0,2347,0,2400,9.7C2453.3,19,2507,39,2560,43.5C2613.3,48,2667,39,2720,72.5C2773.3,106,2827,184,2880,207.8C2933.3,232,2987,203,3040,193.3C3093.3,184,3147,193,3200,183.7C3253.3,174,3307,145,3360,125.7C3413.3,106,3467,97,3520,96.7C3573.3,97,3627,106,3680,101.5C3733.3,97,3787,77,3813,67.7L3840,58L3840,290L3813.3,290C3786.7,290,3733,290,3680,290C3626.7,290,3573,290,3520,290C3466.7,290,3413,290,3360,290C3306.7,290,3253,290,3200,290C3146.7,290,3093,290,3040,290C2986.7,290,2933,290,2880,290C2826.7,290,2773,290,2720,290C2666.7,290,2613,290,2560,290C2506.7,290,2453,290,2400,290C2346.7,290,2293,290,2240,290C2186.7,290,2133,290,2080,290C2026.7,290,1973,290,1920,290C1866.7,290,1813,290,1760,290C1706.7,290,1653,290,1600,290C1546.7,290,1493,290,1440,290C1386.7,290,1333,290,1280,290C1226.7,290,1173,290,1120,290C1066.7,290,1013,290,960,290C906.7,290,853,290,800,290C746.7,290,693,290,640,290C586.7,290,533,290,480,290C426.7,290,373,290,320,290C266.7,290,213,290,160,290C106.7,290,53,290,27,290L0,290Z"/></svg>