<?xml version="1.0" standalone="no"?>
<svg xmlns:xlink="http://www.w3.org/1999/xlink" id="wave" style="transform:rotate(180deg); transition: 0.3s" viewBox="0 0 1440 230" version="1.1" xmlns="http://www.w3.org/2000/svg"><defs><linearGradient id="sw-gradient-0" x1="0" x2="0" y1="1" y2="0"><stop stop-color="rgba(238, 169, 73, 1)" offset="0%"/><stop stop-color="rgba(238, 169, 73, 1)" offset="100%"/></linearGradient></defs><path style="transform:translate(0, 0px); opacity:1" fill="url(#sw-gradient-0)" d="M0,0L34.3,15.3C68.6,31,137,61,206,61.3C274.3,61,343,31,411,15.3C480,0,549,0,617,23C685.7,46,754,92,823,126.5C891.4,161,960,184,1029,191.7C1097.1,199,1166,192,1234,176.3C1302.9,161,1371,138,1440,126.5C1508.6,115,1577,115,1646,126.5C1714.3,138,1783,161,1851,153.3C1920,146,1989,107,2057,76.7C2125.7,46,2194,23,2263,19.2C2331.4,15,2400,31,2469,34.5C2537.1,38,2606,31,2674,46C2742.9,61,2811,100,2880,115C2948.6,130,3017,123,3086,99.7C3154.3,77,3223,38,3291,23C3360,8,3429,15,3497,49.8C3565.7,84,3634,146,3703,168.7C3771.4,192,3840,176,3909,153.3C3977.1,130,4046,100,4114,84.3C4182.9,69,4251,69,4320,92C4388.6,115,4457,161,4526,153.3C4594.3,146,4663,84,4731,84.3C4800,84,4869,146,4903,176.3L4937.1,207L4937.1,230L4902.9,230C4868.6,230,4800,230,4731,230C4662.9,230,4594,230,4526,230C4457.1,230,4389,230,4320,230C4251.4,230,4183,230,4114,230C4045.7,230,3977,230,3909,230C3840,230,3771,230,3703,230C3634.3,230,3566,230,3497,230C3428.6,230,3360,230,3291,230C3222.9,230,3154,230,3086,230C3017.1,230,2949,230,2880,230C2811.4,230,2743,230,2674,230C2605.7,230,2537,230,2469,230C2400,230,2331,230,2263,230C2194.3,230,2126,230,2057,230C1988.6,230,1920,230,1851,230C1782.9,230,1714,230,1646,230C1577.1,230,1509,230,1440,230C1371.4,230,1303,230,1234,230C1165.7,230,1097,230,1029,230C960,230,891,230,823,230C754.3,230,686,230,617,230C548.6,230,480,230,411,230C342.9,230,274,230,206,230C137.1,230,69,230,34,230L0,230Z"/></svg>