<?xml version="1.0" standalone="no"?>
<svg xmlns:xlink="http://www.w3.org/1999/xlink" id="wave" style="transform:rotate(0deg); transition: 0.3s" viewBox="0 0 1440 300" version="1.1" xmlns="http://www.w3.org/2000/svg"><defs><linearGradient id="sw-gradient-0" x1="0" x2="0" y1="1" y2="0"><stop stop-color="rgba(238, 169, 72, 1)" offset="0%"/><stop stop-color="rgba(238, 169, 72, 1)" offset="100%"/></linearGradient></defs><path style="transform:translate(0, 0px); opacity:1" fill="url(#sw-gradient-0)" d="M0,120L21.8,125C43.6,130,87,140,131,160C174.5,180,218,210,262,190C305.5,170,349,100,393,80C436.4,60,480,90,524,105C567.3,120,611,120,655,105C698.2,90,742,60,785,75C829.1,90,873,150,916,180C960,210,1004,210,1047,175C1090.9,140,1135,70,1178,35C1221.8,0,1265,0,1309,40C1352.7,80,1396,160,1440,160C1483.6,160,1527,80,1571,55C1614.5,30,1658,60,1702,60C1745.5,60,1789,30,1833,60C1876.4,90,1920,180,1964,195C2007.3,210,2051,150,2095,145C2138.2,140,2182,190,2225,220C2269.1,250,2313,260,2356,260C2400,260,2444,250,2487,240C2530.9,230,2575,220,2618,190C2661.8,160,2705,110,2749,75C2792.7,40,2836,20,2880,15C2923.6,10,2967,20,3011,55C3054.5,90,3098,150,3120,180L3141.8,210L3141.8,300L3120,300C3098.2,300,3055,300,3011,300C2967.3,300,2924,300,2880,300C2836.4,300,2793,300,2749,300C2705.5,300,2662,300,2618,300C2574.5,300,2531,300,2487,300C2443.6,300,2400,300,2356,300C2312.7,300,2269,300,2225,300C2181.8,300,2138,300,2095,300C2050.9,300,2007,300,1964,300C1920,300,1876,300,1833,300C1789.1,300,1745,300,1702,300C1658.2,300,1615,300,1571,300C1527.3,300,1484,300,1440,300C1396.4,300,1353,300,1309,300C1265.5,300,1222,300,1178,300C1134.5,300,1091,300,1047,300C1003.6,300,960,300,916,300C872.7,300,829,300,785,300C741.8,300,698,300,655,300C610.9,300,567,300,524,300C480,300,436,300,393,300C349.1,300,305,300,262,300C218.2,300,175,300,131,300C87.3,300,44,300,22,300L0,300Z"/></svg>