<?xml version="1.0" standalone="no"?>
<svg xmlns:xlink="http://www.w3.org/1999/xlink" id="wave" style="transform:rotate(0deg); transition: 0.3s" viewBox="0 0 1440 160" version="1.1" xmlns="http://www.w3.org/2000/svg"><defs><linearGradient id="sw-gradient-0" x1="0" x2="0" y1="1" y2="0"><stop stop-color="rgba(38, 146, 74, 1)" offset="0%"/><stop stop-color="rgba(38, 146, 74, 1)" offset="100%"/></linearGradient></defs><path style="transform:translate(0, 0px); opacity:1" fill="url(#sw-gradient-0)" d="M0,112L34.3,117.3C68.6,123,137,133,206,120C274.3,107,343,69,411,48C480,27,549,21,617,32C685.7,43,754,69,823,82.7C891.4,96,960,96,1029,85.3C1097.1,75,1166,53,1234,50.7C1302.9,48,1371,64,1440,66.7C1508.6,69,1577,59,1646,53.3C1714.3,48,1783,48,1851,61.3C1920,75,1989,101,2057,98.7C2125.7,96,2194,64,2263,61.3C2331.4,59,2400,85,2469,90.7C2537.1,96,2606,80,2674,69.3C2742.9,59,2811,53,2880,53.3C2948.6,53,3017,59,3086,53.3C3154.3,48,3223,32,3291,32C3360,32,3429,48,3497,58.7C3565.7,69,3634,75,3703,64C3771.4,53,3840,27,3909,32C3977.1,37,4046,75,4114,93.3C4182.9,112,4251,112,4320,117.3C4388.6,123,4457,133,4526,125.3C4594.3,117,4663,91,4731,66.7C4800,43,4869,21,4903,10.7L4937.1,0L4937.1,160L4902.9,160C4868.6,160,4800,160,4731,160C4662.9,160,4594,160,4526,160C4457.1,160,4389,160,4320,160C4251.4,160,4183,160,4114,160C4045.7,160,3977,160,3909,160C3840,160,3771,160,3703,160C3634.3,160,3566,160,3497,160C3428.6,160,3360,160,3291,160C3222.9,160,3154,160,3086,160C3017.1,160,2949,160,2880,160C2811.4,160,2743,160,2674,160C2605.7,160,2537,160,2469,160C2400,160,2331,160,2263,160C2194.3,160,2126,160,2057,160C1988.6,160,1920,160,1851,160C1782.9,160,1714,160,1646,160C1577.1,160,1509,160,1440,160C1371.4,160,1303,160,1234,160C1165.7,160,1097,160,1029,160C960,160,891,160,823,160C754.3,160,686,160,617,160C548.6,160,480,160,411,160C342.9,160,274,160,206,160C137.1,160,69,160,34,160L0,160Z"/></svg>