<?xml version="1.0" standalone="no"?><svg xmlns="http://www.w3.org/2000/svg" viewBox="0 0 1440 320"><path fill="#fff6d6" fill-opacity="1" d="M0,96L40,133.3C80,171,160,245,240,245.3C320,245,400,171,480,165.3C560,160,640,224,720,234.7C800,245,880,203,960,160C1040,117,1120,75,1200,48C1280,21,1360,11,1400,5.3L1440,0L1440,320L1400,320C1360,320,1280,320,1200,320C1120,320,1040,320,960,320C880,320,800,320,720,320C640,320,560,320,480,320C400,320,320,320,240,320C160,320,80,320,40,320L0,320Z"></path></svg>